<svg width="16" height="16" viewBox="0 0 16 16" fill="none" xmlns="http://www.w3.org/2000/svg">
<path d="M15.5 8C15.5 9.98912 14.7098 11.8968 13.3033 13.3033C11.8968 14.7098 9.98912 15.5 8 15.5C6.01088 15.5 4.10322 14.7098 2.6967 13.3033C1.29018 11.8968 0.5 9.98912 0.5 8M15.5 8C15.5 6.01088 14.7098 4.10322 13.3033 2.6967C11.8968 1.29018 9.98912 0.5 8 0.5C6.01088 0.5 4.10322 1.29018 2.6967 2.6967C1.29018 4.10322 0.5 6.01088 0.5 8M15.5 8H0.5" stroke="white" stroke-linecap="round" stroke-linejoin="round"/>
<path d="M10.8845 8C10.7428 10.7427 9.73256 13.3692 7.99985 15.5C6.26714 13.3692 5.25692 10.7427 5.11523 8C5.25692 5.25732 6.26714 2.63075 7.99985 0.5C9.73256 2.63075 10.7428 5.25732 10.8845 8Z" stroke="white" stroke-linecap="round" stroke-linejoin="round"/>
</svg>
