<svg width="19" height="17" viewBox="0 0 19 17" fill="none" xmlns="http://www.w3.org/2000/svg">
<g clip-path="url(#clip0_169_7)">
<path d="M0.437026 12.2994L6.74503 1.54468C7.54629 2.01447 11.5868 4.24132 12.2393 4.66484L5.93129 15.4202C5.24143 16.3278 -0.436974 13.6768 0.437026 12.2988V12.2994Z" fill="#FBBC04"/>
<path d="M18.5609 12.2993L12.2529 1.54522C11.371 0.0836651 9.47179 -0.447474 7.91179 0.415756C6.35178 1.27899 5.87678 3.13849 6.75865 4.66531L13.0666 15.4207C13.9485 16.8816 15.8478 17.4127 17.4079 16.5495C18.8996 15.6862 19.4428 13.7608 18.5609 12.3005V12.2993Z" fill="#4285F4"/>
<path d="M3.16647 16.9651C4.91526 16.9651 6.33294 15.5883 6.33294 13.89C6.33294 12.1917 4.91526 10.8149 3.16647 10.8149C1.41768 10.8149 0 12.1917 0 13.89C0 15.5883 1.41768 16.9651 3.16647 16.9651Z" fill="#34A853"/>
</g>
<defs>
<clipPath id="clip0_169_7">
<rect width="19" height="17" fill="white"/>
</clipPath>
</defs>
</svg>
