<svg width="64" height="71" viewBox="0 0 64 71" fill="none" xmlns="http://www.w3.org/2000/svg">
<g clip-path="url(#clip0_235_6)">
<path d="M64.0007 61.9833C64.0072 63.2311 63.7484 64.4661 63.2414 65.6064C62.7345 66.7467 61.9909 67.7662 61.0602 68.5973C60.1294 69.4285 59.0325 70.0523 57.8424 70.4275C56.6522 70.8027 55.3959 70.9206 54.1567 70.7735C49.6457 70.106 46.3402 66.1808 46.4502 61.622V9.21126C46.3412 4.64776 49.655 0.720255 54.1717 0.0600053C55.4098 -0.0849746 56.6645 0.03456 57.8529 0.410702C59.0412 0.786845 60.1362 1.41102 61.0654 2.24195C61.9945 3.07287 62.7366 4.0916 63.2427 5.23076C63.7487 6.36992 64.0071 7.60353 64.0007 8.85001V61.9833Z" fill="#F9AB00"/>
<path d="M8.77525 53.2982C13.6218 53.2982 17.5505 57.2272 17.5505 62.0735C17.5505 66.92 13.6218 70.8487 8.77525 70.8487C3.92875 70.8487 0 66.92 0 62.0737C0 57.2275 3.92875 53.2982 8.77525 53.2982ZM31.8647 26.7015C26.9955 26.9685 23.2172 31.053 23.3305 35.9285V59.4997C23.3305 65.8967 26.1453 69.7802 30.2693 70.608C31.5478 70.8672 32.8681 70.8386 34.1342 70.5242C35.4003 70.2098 36.5806 69.6175 37.5894 68.7902C38.5982 67.963 39.4102 66.9216 39.9665 65.7416C40.5228 64.5616 40.8095 63.2726 40.8058 61.968V35.5222C40.8079 34.3531 40.5773 33.1953 40.1272 32.1162C39.6772 31.0372 39.0167 30.0586 38.1845 29.2375C37.3522 28.4164 36.3647 27.7693 35.2797 27.334C34.1946 26.8986 33.0337 26.6834 31.8647 26.7015Z" fill="#E37400"/>
</g>
<defs>
<clipPath id="clip0_235_6">
<rect width="64" height="71" fill="white"/>
</clipPath>
</defs>
</svg>
