<svg width="16" height="16" viewBox="0 0 16 16" fill="none" xmlns="http://www.w3.org/2000/svg">
<path d="M8 3.88865C7.18757 3.88865 6.39339 4.12933 5.71788 4.58027C5.04238 5.03121 4.51588 5.67214 4.20498 6.42202C3.89408 7.1719 3.81273 7.99704 3.97123 8.79311C4.12972 9.58918 4.52094 10.3204 5.09542 10.8943C5.66989 11.4683 6.40181 11.8591 7.19863 12.0175C7.99544 12.1758 8.82136 12.0946 9.57195 11.784C10.3225 11.4733 10.9641 10.9473 11.4154 10.2725C11.8668 9.59759 12.1077 8.80416 12.1077 7.99249C12.109 7.4532 12.0037 6.91896 11.7977 6.42046C11.5917 5.92196 11.2892 5.46903 10.9075 5.08769C10.5258 4.70635 10.0725 4.40411 9.57351 4.19834C9.07455 3.99257 8.5398 3.88733 8 3.88865ZM8 10.665C7.47093 10.665 6.95374 10.5083 6.51384 10.2146C6.07394 9.92094 5.73107 9.50355 5.52861 9.01522C5.32614 8.52688 5.27317 7.98953 5.37638 7.47111C5.4796 6.9527 5.73437 6.4765 6.10848 6.10275C6.48259 5.72899 6.95923 5.47446 7.47813 5.37134C7.99703 5.26822 8.53489 5.32114 9.02368 5.52342C9.51248 5.72569 9.93026 6.06824 10.2242 6.50773C10.5181 6.94722 10.675 7.46392 10.675 7.99249C10.675 8.70128 10.3932 9.38105 9.89152 9.88224C9.38986 10.3834 8.70946 10.665 8 10.665ZM13.2398 3.71849C13.2398 3.91645 13.1811 4.10997 13.071 4.27458C12.9609 4.43918 12.8044 4.56747 12.6213 4.64323C12.4383 4.71899 12.2368 4.73881 12.0425 4.70019C11.8481 4.66157 11.6696 4.56624 11.5295 4.42626C11.3894 4.28627 11.294 4.10792 11.2553 3.91376C11.2167 3.7196 11.2365 3.51834 11.3123 3.33544C11.3882 3.15255 11.5166 2.99622 11.6813 2.88624C11.8461 2.77625 12.0398 2.71755 12.2379 2.71755C12.5037 2.71755 12.7585 2.823 12.9464 3.01072C13.1343 3.19843 13.2398 3.45302 13.2398 3.71849ZM15.9549 4.71942C15.9852 3.47489 15.5204 2.26913 14.6625 1.36628C14.2174 0.936466 13.6919 0.598536 13.116 0.371824C12.5401 0.145112 11.9251 0.0340671 11.3062 0.0450422C10.0038 -0.0150141 5.99624 -0.0150141 4.6938 0.0450422C3.44867 0.0181061 2.24298 0.481953 1.33751 1.33625C0.479592 2.2391 0.0148461 3.44487 0.0450845 4.6894C-0.0150282 5.99062 -0.0150282 9.99437 0.0450845 11.2956C0.0148461 12.5401 0.479592 13.7459 1.33751 14.6487C2.24298 15.503 3.44867 15.9669 4.6938 15.9399C6.01628 16.02 9.98372 16.02 11.3062 15.9399C12.5519 15.9702 13.7588 15.5058 14.6625 14.6487C15.5204 13.7459 15.9852 12.5401 15.9549 11.2956C16.015 9.99437 16.015 5.99062 15.9549 4.6894V4.71942ZM14.2517 12.7269C14.1157 13.0712 13.9103 13.3839 13.6484 13.6456C13.3864 13.9073 13.0735 14.1125 12.7289 14.2484C11.1735 14.5625 9.58353 14.6702 8 14.5687C6.4198 14.6693 4.83321 14.5616 3.28115 14.2484C2.93657 14.1125 2.6236 13.9073 2.36164 13.6456C2.09968 13.3839 1.89433 13.0712 1.7583 12.7269C1.33751 11.6659 1.42768 9.16359 1.42768 8.0025C1.42768 6.84141 1.33751 4.32906 1.7583 3.27807C1.89049 2.93041 2.09438 2.61441 2.35673 2.35058C2.61909 2.08675 2.93404 1.88098 3.28115 1.74664C4.83321 1.43337 6.4198 1.32567 8 1.42634C9.58353 1.32479 11.1735 1.43249 12.7289 1.74664C13.0735 1.88254 13.3864 2.0877 13.6484 2.34941C13.9103 2.61112 14.1157 2.9238 14.2517 3.26806C14.6725 4.32906 14.5723 6.8314 14.5723 7.99249C14.5723 9.15358 14.6725 11.6659 14.2517 12.7169V12.7269Z" fill="white"/>
</svg>
