<svg width="24" height="24" viewBox="0 0 24 24" fill="none" xmlns="http://www.w3.org/2000/svg">
<path d="M5.84315 4.56791C7.48096 2.95838 9.68823 2.06093 11.9845 2.07088C14.2808 2.08084 16.4802 2.9974 18.104 4.62107C19.7278 6.24473 20.6445 8.44406 20.6547 10.7403C20.6648 13.0366 19.7675 15.244 18.1581 16.8819L16.9701 18.0559C16.0955 18.9146 14.9601 20.0189 13.5641 21.3689C13.1444 21.7745 12.5836 22.0011 11.9999 22.0009C11.4163 22.0007 10.8556 21.7737 10.4361 21.3679L6.94515 17.9719C6.50648 17.5412 6.13915 17.1779 5.84315 16.8819C4.21087 15.2486 3.29395 13.034 3.29395 10.7249C3.29395 8.4158 4.21087 6.20119 5.84315 4.56791ZM17.0961 5.62991C16.4286 4.95318 15.6338 4.4152 14.7574 4.04694C13.8811 3.67868 12.9405 3.48743 11.99 3.48418C11.0394 3.48094 10.0976 3.66578 9.21874 4.02805C8.33991 4.39032 7.54142 4.92287 6.86926 5.59502C6.19711 6.26718 5.66456 7.06567 5.30229 7.9445C4.94002 8.82334 4.75518 9.76516 4.75842 10.7157C4.76167 11.6663 4.95292 12.6068 5.32118 13.4832C5.68944 14.3595 6.22742 15.1543 6.90415 15.8219L8.39115 17.2889C9.4176 18.2919 10.4469 19.2919 11.4791 20.2889C11.619 20.4242 11.806 20.4999 12.0006 20.4999C12.1953 20.4999 12.3823 20.4242 12.5221 20.2889L15.9161 16.9889C16.3861 16.5289 16.7795 16.1399 17.0961 15.8219C18.4476 14.4703 19.2069 12.6373 19.2069 10.7259C19.2069 8.81455 18.4476 6.98147 17.0961 5.62991ZM12.0011 7.49991C12.4608 7.50004 12.916 7.59071 13.3407 7.76675C13.7653 7.94279 14.1511 8.20074 14.4761 8.52589C14.801 8.85103 15.0588 9.237 15.2346 9.66175C15.4104 10.0865 15.5008 10.5417 15.5006 11.0014C15.5005 11.4611 15.4098 11.9163 15.2338 12.3409C15.0578 12.7656 14.7998 13.1514 14.4747 13.4763C14.1495 13.8013 13.7636 14.059 13.3388 14.2348C12.9141 14.4106 12.4588 14.501 11.9991 14.5009C11.0708 14.5006 10.1805 14.1316 9.52421 13.4749C8.86793 12.8183 8.49938 11.9278 8.49965 10.9994C8.49991 10.071 8.86897 9.18076 9.52563 8.52447C10.1823 7.86819 11.0728 7.49964 12.0011 7.49991ZM12.0001 8.99991C11.4697 8.99991 10.961 9.21062 10.5859 9.58569C10.2109 9.96077 10.0001 10.4695 10.0001 10.9999C10.0001 11.5303 10.2109 12.039 10.5859 12.4141C10.961 12.7892 11.4697 12.9999 12.0001 12.9999C12.5306 12.9999 13.0393 12.7892 13.4144 12.4141C13.7894 12.039 14.0001 11.5303 14.0001 10.9999C14.0001 10.4695 13.7894 9.96077 13.4144 9.58569C13.0393 9.21062 12.5306 8.99991 12.0001 8.99991Z" fill="white"/>
</svg>
