<svg width="26" height="17" viewBox="0 0 26 17" fill="none" xmlns="http://www.w3.org/2000/svg">
<g clip-path="url(#clip0_169_2)">
<path d="M2.8083 11.148C2.8083 12.1198 3.02626 12.8659 3.31104 13.3173C3.68448 13.9085 4.24135 14.1589 4.80919 14.1589C5.54155 14.1589 6.21156 13.981 7.50263 12.233C8.53704 10.8321 9.75589 8.86545 10.5759 7.6326L11.9648 5.54389C12.9295 4.09332 14.0461 2.48081 15.3265 1.38774C16.3715 0.495585 17.499 0 18.6337 0C20.5388 0 22.3534 1.08064 23.7423 3.10742C25.2621 5.32706 26 8.12292 26 11.0081C26 12.7234 25.6547 13.9836 25.0669 14.9794C24.4991 15.9423 23.3924 16.9044 21.5307 16.9044V14.1589C23.1248 14.1589 23.5226 12.7251 23.5226 11.0843C23.5226 8.74605 22.9656 6.15102 21.7387 4.29692C20.8679 2.98166 19.7396 2.17809 18.4982 2.17809C17.1555 2.17809 16.075 3.16926 14.8607 4.93686C14.2152 5.87584 13.5524 7.0202 12.8084 8.31141L11.9891 9.73195C10.3435 12.588 9.92672 13.2384 9.10396 14.312C7.66177 16.192 6.43043 16.9044 4.80919 16.9044C2.8861 16.9044 1.66989 16.0892 0.916805 14.8608C0.301945 13.8598 0 12.5464 0 11.0498L2.8083 11.148Z" fill="#0081FB"/>
<path d="M2.21423 3.30118C3.50184 1.35861 5.35983 0 7.49091 0C8.7252 0 9.95208 0.357597 11.2333 1.38157C12.6346 2.50109 14.1283 4.34464 15.9918 7.38307L16.6601 8.47336C18.273 11.1038 19.1907 12.4569 19.7278 13.0952C20.4186 13.9147 20.9023 14.1589 21.5307 14.1589C23.1247 14.1589 23.5226 12.7251 23.5226 11.0843L26 11.0081C26 12.7234 25.6547 13.9836 25.0669 14.9794C24.4991 15.9423 23.3923 16.9044 21.5307 16.9044C20.3734 16.9044 19.3481 16.6583 18.2143 15.6113C17.3427 14.8077 16.3237 13.3801 15.5397 12.0967L13.2079 8.28397C12.038 6.37053 10.9647 4.94392 10.3436 4.29772C9.67552 3.60301 8.81651 2.76394 7.44582 2.76394C6.33645 2.76394 5.39426 3.52606 4.60583 4.6916L2.21423 3.30118Z" fill="url(#paint0_linear_169_2)"/>
<path d="M7.44575 2.76394C6.33638 2.76394 5.39419 3.52606 4.60576 4.6916C3.49101 6.33871 2.80831 8.79198 2.80831 11.148C2.80831 12.1198 3.02626 12.8659 3.31104 13.3173L0.916805 14.8608C0.301945 13.8598 0 12.5464 0 11.0498C0 8.32821 0.763141 5.4917 2.21427 3.30118C3.50188 1.35861 5.35986 0 7.49095 0L7.44575 2.76394Z" fill="url(#paint1_linear_169_2)"/>
</g>
<defs>
<linearGradient id="paint0_linear_169_2" x1="332.313" y1="945.529" x2="2120.22" y2="1037.78" gradientUnits="userSpaceOnUse">
<stop stop-color="#0064E1"/>
<stop offset="0.4" stop-color="#0064E1"/>
<stop offset="0.83" stop-color="#0073EE"/>
<stop offset="1" stop-color="#0082FB"/>
</linearGradient>
<linearGradient id="paint1_linear_169_2" x1="406.871" y1="1230.21" x2="406.871" y2="584.133" gradientUnits="userSpaceOnUse">
<stop stop-color="#0082FB"/>
<stop offset="1" stop-color="#0064E0"/>
</linearGradient>
<clipPath id="clip0_169_2">
<rect width="26" height="17" fill="white"/>
</clipPath>
</defs>
</svg>
