<svg width="19" height="22" viewBox="0 0 19 22" fill="none" xmlns="http://www.w3.org/2000/svg">
<path d="M2.2545 2.3225e-05C1.4121 2.3225e-05 0.66825 0.591323 0.513 1.44182C0.3132 2.54612 0 4.51172 0 6.07502C0 7.73687 0.8586 9.19757 2.15325 10.0386C2.5191 10.2776 2.7 10.5854 2.7 10.8486V11.4021C2.7 11.4264 2.69865 11.4507 2.69595 11.475C2.6595 11.826 2.4921 13.4042 2.33415 15.0269C2.1789 16.6266 2.025 18.3344 2.025 18.9C2.025 19.6161 2.30946 20.3029 2.81581 20.8092C3.32216 21.3156 4.00892 21.6 4.725 21.6C5.44108 21.6 6.12784 21.3156 6.63419 20.8092C7.14054 20.3029 7.425 19.6161 7.425 18.9C7.425 18.333 7.2711 16.6266 7.11585 15.0269C7.00043 13.8429 6.87983 12.6593 6.75405 11.4764L6.75 11.4021V10.8486C6.75 10.584 6.9309 10.2762 7.29675 10.0386C7.95764 9.60983 8.50082 9.02261 8.87689 8.33036C9.25296 7.63811 9.44997 6.86282 9.45 6.07502C9.45 4.51172 9.1368 2.54612 8.937 1.44182C8.86195 1.03539 8.64639 0.668289 8.32804 0.404722C8.00968 0.141154 7.6088 -0.00209805 7.1955 2.3225e-05C6.7365 2.3225e-05 6.318 0.171473 6.0021 0.453623C5.64113 0.16023 5.19016 5.40388e-05 4.725 2.3225e-05C4.24035 2.3225e-05 3.7962 0.170123 3.4479 0.453623C3.12012 0.160533 2.6942 -0.00102317 2.2545 2.3225e-05ZM4.05 2.02502C4.05 1.846 4.12112 1.67431 4.2477 1.54773C4.37429 1.42114 4.54598 1.35002 4.725 1.35002C4.90402 1.35002 5.07571 1.42114 5.2023 1.54773C5.32888 1.67431 5.4 1.846 5.4 2.02502V6.07502C5.4 6.25404 5.47112 6.42573 5.5977 6.55232C5.72429 6.67891 5.89598 6.75002 6.075 6.75002C6.25402 6.75002 6.42571 6.67891 6.5523 6.55232C6.67888 6.42573 6.75 6.25404 6.75 6.07502V1.79552C6.75 1.73702 6.76152 1.67909 6.78391 1.62504C6.8063 1.57099 6.83912 1.52188 6.88048 1.48051C6.92185 1.43914 6.97096 1.40632 7.02501 1.38393C7.07907 1.36155 7.137 1.35002 7.1955 1.35002C7.40745 1.35002 7.5735 1.49582 7.6086 1.68347C7.80705 2.78102 8.1 4.64267 8.1 6.07502C8.10006 6.63802 7.95929 7.19209 7.69049 7.68678C7.42169 8.18147 7.0334 8.60105 6.561 8.90732C5.96835 9.29207 5.4 9.96842 5.4 10.8486V11.4021C5.4 11.4741 5.4036 11.5461 5.4108 11.6181C5.4486 11.9664 5.61465 13.5405 5.7726 15.1578C5.9319 16.7981 6.075 18.4181 6.075 18.9C6.075 19.2581 5.93277 19.6014 5.67959 19.8546C5.42642 20.1078 5.08304 20.25 4.725 20.25C4.36696 20.25 4.02358 20.1078 3.77041 19.8546C3.51723 19.6014 3.375 19.2581 3.375 18.9C3.375 18.4181 3.5181 16.7981 3.6774 15.1578C3.83535 13.5405 4.0014 11.9664 4.0392 11.6181C4.0464 11.5461 4.05 11.4741 4.05 11.4021V10.8486C4.05 9.96842 3.48165 9.29207 2.889 8.90732C2.4166 8.60105 2.02831 8.18147 1.75951 7.68678C1.49071 7.19209 1.34994 6.63802 1.35 6.07502C1.35 4.64402 1.64295 2.78102 1.8414 1.68347C1.85989 1.58786 1.91167 1.50189 1.98755 1.44084C2.06343 1.37979 2.15849 1.34761 2.25585 1.35002C2.37377 1.35038 2.48674 1.39747 2.56999 1.48098C2.65325 1.56449 2.7 1.6776 2.7 1.79552V6.07502C2.7 6.25404 2.77112 6.42573 2.8977 6.55232C3.02429 6.67891 3.19598 6.75002 3.375 6.75002C3.55402 6.75002 3.72571 6.67891 3.8523 6.55232C3.97888 6.42573 4.05 6.25404 4.05 6.07502V2.02502ZM10.8 6.07502C10.8 4.46383 11.44 2.91863 12.5793 1.77935C13.7186 0.640066 15.2638 2.3225e-05 16.875 2.3225e-05C17.054 2.3225e-05 17.2257 0.0711392 17.3523 0.197726C17.4789 0.324313 17.55 0.496002 17.55 0.675023V10.0953L17.577 10.3977C17.6822 11.6107 17.7848 12.8239 17.8848 14.0373C18.0522 16.0718 18.225 18.3047 18.225 18.9C18.225 19.6161 17.9405 20.3029 17.4342 20.8092C16.9278 21.3156 16.2411 21.6 15.525 21.6C14.8089 21.6 14.1222 21.3156 13.6158 20.8092C13.1095 20.3029 12.825 19.6161 12.825 18.9C12.825 18.306 12.9978 16.0718 13.1652 14.0373C13.2489 13.01 13.3339 12.0164 13.3974 11.2806L13.4379 10.8H12.825C12.2879 10.8 11.7729 10.5867 11.3931 10.2069C11.0133 9.82715 10.8 9.31209 10.8 8.77502V6.07502ZM14.8473 10.1844L14.819 10.5152L14.742 11.3967C14.6786 12.1311 14.5935 13.122 14.5098 14.148C14.3397 16.223 14.175 18.3762 14.175 18.9C14.175 19.2581 14.3172 19.6014 14.5704 19.8546C14.8236 20.1078 15.167 20.25 15.525 20.25C15.883 20.25 16.2264 20.1078 16.4796 19.8546C16.7328 19.6014 16.875 19.2581 16.875 18.9C16.875 18.3762 16.7103 16.223 16.5402 14.148C16.44 12.9368 16.337 11.7259 16.231 10.5152L16.2027 10.1858V10.1844L16.2 10.125V1.39727C15.0752 1.55962 14.0467 2.12189 13.3028 2.98103C12.559 3.84017 12.1497 4.93862 12.15 6.07502V8.77502C12.15 8.95404 12.2211 9.12573 12.3477 9.25232C12.4743 9.37891 12.646 9.45002 12.825 9.45002H14.175C14.2686 9.45003 14.3613 9.46953 14.447 9.50727C14.5327 9.54501 14.6096 9.60017 14.6728 9.66924C14.736 9.73831 14.7842 9.81978 14.8142 9.90848C14.8443 9.99717 14.8555 10.0911 14.8473 10.1844Z" fill="#A0A0A0"/>
</svg>
