<svg width="21" height="22" viewBox="0 0 21 22" fill="none" xmlns="http://www.w3.org/2000/svg">
<path d="M18.6705 13.6294V5.75437L12.483 1.4265L6.2955 5.75325V8.78175H5.1705V5.21438L12.483 0L19.7955 5.21325V13.6283L18.6705 13.6294ZM13.1535 6.51038H14.0625V5.60138H13.1535V6.51038ZM10.9035 6.51038H11.8125V5.60138H10.9035V6.51038ZM13.1535 8.76038H14.0625V7.85138H13.1535V8.76038ZM10.9035 8.76038H11.8125V7.85138H10.9035V8.76038ZM4.5 17.9989L13.0106 20.4817L19.7483 18.4005C19.7258 18.0592 19.6238 17.8132 19.4423 17.6625C19.2593 17.5117 19.0526 17.4364 18.8224 17.4364H13.4843C13.0088 17.4364 12.5775 17.4176 12.1905 17.3801C11.8035 17.3426 11.4079 17.2534 11.0036 17.1124L8.53987 16.3046L8.92012 15.1931L11.1982 16.0166C11.5597 16.1539 11.9708 16.2364 12.4313 16.2641C12.891 16.2911 13.521 16.3069 14.3212 16.3114C14.3212 15.9604 14.2567 15.6769 14.1277 15.4609C13.9987 15.2449 13.8139 15.0941 13.5731 15.0086L7.09987 12.6326C7.05712 12.6184 7.01737 12.6079 6.98062 12.6011C6.94387 12.5944 6.9045 12.5906 6.8625 12.5899H4.5V17.9989ZM0 20.6381V11.4649H6.8355C6.9405 11.4649 7.0485 11.4769 7.1595 11.5009C7.2705 11.5249 7.37362 11.5526 7.46887 11.5841L13.9702 13.9658C14.373 14.1188 14.7195 14.3936 15.0098 14.7904C15.3008 15.1871 15.4463 15.6941 15.4463 16.3114H18.8213C19.4993 16.3114 20.0183 16.5233 20.3783 16.947C20.739 17.3715 20.9194 17.9096 20.9194 18.5614V19.2532L13.0669 21.6765L4.49887 19.179V20.6381H0ZM1.125 19.5131H3.375V12.5899H1.125V19.5131Z" fill="#A0A0A0"/>
</svg>
