<svg width="20" height="19" viewBox="0 0 20 19" fill="none" xmlns="http://www.w3.org/2000/svg">
<path d="M10.0811 18.7796C8.91112 18.6401 7.74937 18.3349 6.59587 17.8639C5.44237 17.3921 4.39725 16.7051 3.4605 15.8029C2.523 14.8999 1.7445 13.7554 1.125 12.3694C0.5055 10.9834 0.14475 9.31237 0.0427501 7.35637L0 6.44737L0.865125 6.49125C1.64812 6.534 2.57812 6.73162 3.65512 7.08412C4.73287 7.43512 5.6475 7.88325 6.399 8.4285C6.49425 7.0185 6.843 5.5335 7.44525 3.9735C8.0475 2.4135 8.79637 1.089 9.69187 0C10.5874 1.089 11.3362 2.42063 11.9385 3.99488C12.5407 5.56913 12.8895 7.06163 12.9847 8.47238C13.6927 7.96988 14.571 7.52513 15.6195 7.13813C16.668 6.75113 17.6201 6.53513 18.4759 6.49013L19.3837 6.44737L19.341 7.39912C19.2832 8.95162 19.0418 10.3451 18.6165 11.5796C18.1913 12.8141 17.5894 13.8971 16.8109 14.8286C16.0324 15.7601 15.0847 16.5514 13.968 17.2024C12.8512 17.8534 11.5556 18.3791 10.0811 18.7796ZM10.0676 17.6411C9.86137 14.5286 8.93812 12.1755 7.29787 10.5818C5.65762 8.988 3.61838 8.00363 1.18013 7.62863C1.38638 10.8349 2.33813 13.2255 4.03538 14.8005C5.73263 16.3755 7.74337 17.3224 10.0676 17.6411ZM9.69187 11.9689C9.94462 11.4986 10.269 11.007 10.665 10.494C11.0602 9.981 11.4671 9.55087 11.8856 9.20362C11.8774 8.04862 11.6809 6.843 11.2961 5.58675C10.9114 4.3305 10.3766 3.1275 9.69187 1.97775C9.00712 3.1275 8.47238 4.3305 8.08763 5.58675C7.70288 6.843 7.50637 8.04862 7.49812 9.20362C7.91662 9.55162 8.32125 9.98175 8.712 10.494C9.10275 11.007 9.42937 11.4982 9.69187 11.9677M11.1937 17.2654C12.0742 16.9676 12.9184 16.5742 13.7261 16.0852C14.5346 15.597 15.2584 14.9715 15.8974 14.2088C16.5371 13.4468 17.0618 12.5269 17.4713 11.4491C17.88 10.3721 18.1238 9.09863 18.2025 7.62863C16.3823 7.89113 14.7634 8.53125 13.3459 9.549C11.9284 10.5667 10.9065 11.8147 10.2802 13.293C10.5052 13.893 10.6901 14.4986 10.8349 15.1099C10.9796 15.7211 11.0992 16.4396 11.1937 17.2654Z" fill="#A0A0A0"/>
</svg>
