<svg width="21" height="21" viewBox="0 0 21 21" fill="none" xmlns="http://www.w3.org/2000/svg">
<path fill-rule="evenodd" clip-rule="evenodd" d="M16.5938 2.25C16.5938 2.84674 16.3567 3.41903 15.9347 3.84099C15.5128 4.26295 14.9405 4.5 14.3438 4.5C13.747 4.5 13.1747 4.26295 12.7528 3.84099C12.3308 3.41903 12.0938 2.84674 12.0938 2.25C12.0938 1.65326 12.3308 1.08097 12.7528 0.65901C13.1747 0.237053 13.747 0 14.3438 0C14.9405 0 15.5128 0.237053 15.9347 0.65901C16.3567 1.08097 16.5938 1.65326 16.5938 2.25ZM15.4688 2.25C15.4688 2.54837 15.3502 2.83452 15.1392 3.04549C14.9283 3.25647 14.6421 3.375 14.3438 3.375C14.0454 3.375 13.7592 3.25647 13.5483 3.04549C13.3373 2.83452 13.2188 2.54837 13.2188 2.25C13.2188 1.95163 13.3373 1.66548 13.5483 1.45451C13.7592 1.24353 14.0454 1.125 14.3438 1.125C14.6421 1.125 14.9283 1.24353 15.1392 1.45451C15.3502 1.66548 15.4688 1.95163 15.4688 2.25ZM2.8125 12.375C2.8125 12.0766 2.93103 11.7905 3.14201 11.5795C3.35298 11.3685 3.63913 11.25 3.9375 11.25H5.625C5.92337 11.25 6.20952 11.3685 6.42049 11.5795C6.63147 11.7905 6.75 12.0766 6.75 12.375V13.5H8.4375C8.73587 13.5 9.02202 13.6185 9.23299 13.8295C9.44397 14.0405 9.5625 14.3266 9.5625 14.625V19.125C9.5625 19.4234 9.44397 19.7095 9.23299 19.9205C9.02202 20.1315 8.73587 20.25 8.4375 20.25H1.125C0.826631 20.25 0.540483 20.1315 0.329505 19.9205C0.118526 19.7095 0 19.4234 0 19.125V14.625C0 14.3266 0.118526 14.0405 0.329505 13.8295C0.540483 13.6185 0.826631 13.5 1.125 13.5H2.8125V12.375ZM1.125 19.125V14.625H2.25V19.125H1.125ZM5.625 12.375V13.5H3.9375V12.375H5.625ZM6.1875 14.625H3.375V19.125H6.1875V14.625ZM7.3125 14.625V19.125H8.4375V14.625H7.3125Z" fill="#A0A0A0"/>
<path d="M18 9C18 8.70163 17.8815 8.41548 17.6705 8.20451C17.4595 7.99353 17.1734 7.875 16.875 7.875V10.125C17.1734 10.125 17.4595 10.0065 17.6705 9.79549C17.8815 9.58452 18 9.29837 18 9Z" fill="#A0A0A0"/>
<path fill-rule="evenodd" clip-rule="evenodd" d="M12.375 20.25C11.9274 20.25 11.4982 20.0722 11.1818 19.7557C10.8653 19.4393 10.6875 19.0101 10.6875 18.5625V9H7.875C7.42745 9 6.99822 8.82221 6.68176 8.50574C6.36529 8.18928 6.1875 7.76005 6.1875 7.3125C6.1875 6.86495 6.36529 6.43572 6.68176 6.11926C6.99822 5.80279 7.42745 5.625 7.875 5.625H17.4465C18.0726 5.625 20.25 6.39225 20.25 8.75869C20.25 10.6369 18.8792 11.8114 18 12.2164V18.5625C18 19.0101 17.8222 19.4393 17.5057 19.7557C17.1893 20.0722 16.7601 20.25 16.3125 20.25C15.8649 20.25 15.4357 20.0722 15.1193 19.7557C14.8028 19.4393 14.625 19.0101 14.625 18.5625V14.0625H14.0625V18.5625C14.0625 18.9568 13.9275 19.3196 13.7003 19.6071C13.5423 19.8074 13.341 19.9694 13.1115 20.0808C12.8819 20.1921 12.6301 20.25 12.375 20.25ZM16.875 11.4958L17.5292 11.1943C18.1727 10.8979 19.125 10.0429 19.125 8.75869C19.125 7.97456 18.7847 7.49981 18.3893 7.18987C18.1972 7.04057 17.9836 6.9211 17.7559 6.8355C17.6573 6.7968 17.5549 6.76852 17.4504 6.75113C17.4429 6.75038 17.4414 6.75 17.4459 6.75H7.875C7.72582 6.75 7.58274 6.80926 7.47725 6.91475C7.37176 7.02024 7.3125 7.16332 7.3125 7.3125C7.3125 7.46168 7.37176 7.60476 7.47725 7.71025C7.58274 7.81574 7.72582 7.875 7.875 7.875H11.8125V18.5625C11.8125 18.7117 11.8718 18.8548 11.9773 18.9602C12.0827 19.0657 12.2258 19.125 12.375 19.125C12.5242 19.125 12.6673 19.0657 12.7727 18.9602C12.8782 18.8548 12.9375 18.7117 12.9375 18.5625V12.9375H15.75V18.5625C15.75 18.7117 15.8093 18.8548 15.9148 18.9602C16.0202 19.0657 16.1633 19.125 16.3125 19.125C16.4617 19.125 16.6048 19.0657 16.7102 18.9602C16.8157 18.8548 16.875 18.7117 16.875 18.5625V11.4958Z" fill="#A0A0A0"/>
</svg>
