<svg width="22" height="22" viewBox="0 0 22 22" fill="none" xmlns="http://www.w3.org/2000/svg">
<path d="M5.75 5.75271L9.5 9.50271M5.75 5.75271L7.5 4.00271V3.75271L6.06 3.15271C5.02501 2.72139 4.05558 2.14714 3.18 1.44671L2 0.502712H1.75L0.5 1.75271V2.00271L1.444 3.18271C2.14443 4.05829 2.71868 5.02772 3.15 6.06271L3.75 7.50271H4L5.75 5.75271ZM12.734 16.0027C14.3029 17.783 15.8091 19.6174 17.25 21.5027H17.5L21.5 17.5027V17.2527C21.5 17.2527 19.03 15.4007 16 12.7367M16.5 10.5027C17.3303 10.5029 18.1477 10.2964 18.8782 9.90169C19.6087 9.50699 20.2294 8.93657 20.6843 8.24192C21.1392 7.54728 21.414 6.75028 21.4837 5.92288C21.5535 5.09548 21.4161 4.26373 21.084 3.50271H20.5L17.5 6.50271H15.5V4.50271L18.5 1.50271V0.918712C17.6037 0.52685 16.6121 0.40651 15.6481 0.572598C14.6841 0.738686 13.79 1.1839 13.0765 1.85311C12.363 2.52232 11.8615 3.38613 11.6341 4.33754C11.4066 5.28895 11.4633 6.28618 11.797 7.20571L10 9.00271C5.5 13.5027 0.5 17.2527 0.5 17.2527V17.5027L4.5 21.5027H4.75C4.75 21.5027 8.5 16.5027 13 12.0027L14.797 10.2057C15.3431 10.4028 15.9194 10.5033 16.5 10.5027Z" stroke="#A0A0A0"/>
</svg>
