<svg width="23" height="20" viewBox="0 0 23 20" fill="none" xmlns="http://www.w3.org/2000/svg">
<path d="M15.7343 7.97344H20.7698C20.9627 7.97344 21.1537 7.93541 21.332 7.86152C21.5102 7.78764 21.6721 7.67935 21.8085 7.54284C21.9448 7.40633 22.0529 7.24429 22.1266 7.06597C22.2003 6.88766 22.2381 6.69656 22.2379 6.50363V1.46813C22.2379 1.27519 22.1998 1.08414 22.126 0.905909C22.0521 0.727678 21.9438 0.565758 21.8073 0.429408C21.6708 0.293058 21.5087 0.184951 21.3304 0.111271C21.1521 0.0375896 20.961 -0.000220799 20.7681 9.69918e-07H15.7326C15.3432 9.69918e-07 14.9698 0.154678 14.6944 0.430005C14.4191 0.705331 14.2644 1.07876 14.2644 1.46813V3.35644H12.3761C11.7644 3.35778 11.1782 3.60148 10.7458 4.03416C10.3135 4.46685 10.0702 5.05325 10.0693 5.66494V9.23063H6.29438V8.18269C6.29438 7.79361 6.13993 7.42044 5.86497 7.14516C5.59001 6.86989 5.21702 6.71501 4.82794 6.71456H1.46813C1.27519 6.71456 1.08414 6.75259 0.905909 6.82648C0.727678 6.90036 0.565758 7.00866 0.429408 7.14516C0.293058 7.28167 0.184951 7.44371 0.111271 7.62203C0.0375896 7.80035 -0.000220799 7.99144 9.69918e-07 8.18438V11.5408C-0.000220799 11.7338 0.0375896 11.9248 0.111271 12.1032C0.184951 12.2815 0.293058 12.4435 0.429408 12.58C0.565758 12.7165 0.727678 12.8248 0.905909 12.8987C1.08414 12.9726 1.27519 13.0106 1.46813 13.0106H4.82794C5.02088 13.0106 5.21192 12.9726 5.39016 12.8987C5.56839 12.8248 5.73031 12.7165 5.86666 12.58C6.00301 12.4435 6.11111 12.2815 6.18479 12.1032C6.25847 11.9248 6.29629 11.7338 6.29606 11.5408V10.4929H10.0727V14.0586C10.0736 14.6702 10.3169 15.2567 10.7492 15.6893C11.1816 16.122 11.7678 16.3657 12.3795 16.3671H14.2695V18.2537C14.2693 18.4466 14.3071 18.6377 14.3808 18.816C14.4545 18.9944 14.5626 19.1564 14.6989 19.2929C14.8353 19.4294 14.9972 19.5377 15.1754 19.6116C15.3536 19.6855 15.5447 19.7235 15.7376 19.7235H20.7731C20.9661 19.7235 21.1571 19.6855 21.3353 19.6116C21.5136 19.5377 21.6755 19.4294 21.8118 19.2929C21.9482 19.1564 22.0563 18.9944 22.13 18.816C22.2037 18.6377 22.2415 18.4466 22.2413 18.2537V13.2182C22.2413 13.0253 22.2032 12.8342 22.1293 12.656C22.0554 12.4777 21.9472 12.3158 21.8107 12.1795C21.6741 12.0431 21.5121 11.935 21.3338 11.8613C21.1555 11.7877 20.9644 11.7498 20.7714 11.7501H15.7359C15.543 11.7501 15.352 11.7881 15.1737 11.862C14.9955 11.9359 14.8336 12.0442 14.6972 12.1807C14.5609 12.3172 14.4528 12.4792 14.3791 12.6575C14.3054 12.8358 14.2676 13.0269 14.2678 13.2199V15.1065H12.3761C12.2384 15.1067 12.1021 15.0798 11.9748 15.0272C11.8476 14.9746 11.732 14.8974 11.6346 14.8001C11.5373 14.7027 11.4601 14.5871 11.4075 14.4599C11.3549 14.3326 11.328 14.1962 11.3282 14.0586V5.66663C11.328 5.52895 11.3549 5.39258 11.4075 5.26533C11.4601 5.13809 11.5373 5.02248 11.6346 4.92513C11.732 4.82777 11.8476 4.75059 11.9748 4.69801C12.1021 4.64542 12.2384 4.61847 12.3761 4.61869H14.2661V6.50531C14.2659 6.69825 14.3037 6.88934 14.3774 7.06766C14.4511 7.24598 14.5592 7.40802 14.6955 7.54453C14.8319 7.68103 14.9938 7.78932 15.172 7.86321C15.3503 7.9371 15.5413 7.97344 15.7343 7.97344ZM5.03381 11.5391C5.03475 11.5669 5.02999 11.5945 5.0198 11.6203C5.00962 11.6461 4.99424 11.6696 4.97462 11.6892C4.955 11.7088 4.93155 11.7242 4.90574 11.7344C4.87993 11.7445 4.8523 11.7493 4.82456 11.7484H1.46813C1.44039 11.7493 1.41276 11.7445 1.38695 11.7344C1.36114 11.7242 1.33769 11.7088 1.31807 11.6892C1.29845 11.6696 1.28307 11.6461 1.27289 11.6203C1.2627 11.5945 1.25794 11.5669 1.25888 11.5391V8.18438C1.25794 8.15664 1.2627 8.12901 1.27289 8.1032C1.28307 8.07739 1.29845 8.05394 1.31807 8.03432C1.33769 8.0147 1.36114 7.99932 1.38695 7.98914C1.41276 7.97895 1.44039 7.97419 1.46813 7.97513H4.82794C4.85567 7.97419 4.8833 7.97895 4.90911 7.98914C4.93493 7.99932 4.95837 8.0147 4.97799 8.03432C4.99762 8.05394 5.01299 8.07739 5.02318 8.1032C5.03336 8.12901 5.03813 8.15664 5.03719 8.18438L5.03381 11.5391ZM15.5233 13.2182C15.5221 13.1903 15.5267 13.1625 15.5368 13.1365C15.5469 13.1105 15.5622 13.0868 15.5819 13.067C15.6015 13.0472 15.625 13.0317 15.651 13.0214C15.6769 13.0111 15.7047 13.0063 15.7326 13.0073H20.7681C20.7958 13.0065 20.8234 13.0115 20.8491 13.0219C20.8749 13.0323 20.8982 13.0479 20.9176 13.0677C20.9371 13.0874 20.9523 13.111 20.9623 13.1369C20.9722 13.1628 20.9768 13.1905 20.9756 13.2182V18.2537C20.9763 18.2813 20.9714 18.3087 20.9611 18.3343C20.9508 18.36 20.9354 18.3832 20.9158 18.4026C20.8962 18.4221 20.8728 18.4373 20.8471 18.4474C20.8214 18.4575 20.794 18.4622 20.7664 18.4613H15.7309C15.7033 18.462 15.6758 18.457 15.6502 18.4467C15.6246 18.4364 15.6014 18.421 15.5819 18.4014C15.5625 18.3818 15.5473 18.3585 15.5372 18.3328C15.5271 18.3071 15.5224 18.2796 15.5233 18.252V13.2182ZM15.5233 1.46981C15.5224 1.44208 15.5271 1.41445 15.5373 1.38864C15.5475 1.36282 15.5629 1.33938 15.5825 1.31976C15.6021 1.30014 15.6256 1.28476 15.6514 1.27457C15.6772 1.26439 15.7048 1.25962 15.7326 1.26056H20.7681C20.7957 1.25986 20.8231 1.2648 20.8487 1.27509C20.8743 1.28538 20.8976 1.30079 20.917 1.32039C20.9364 1.33999 20.9517 1.36335 20.9618 1.38905C20.9718 1.41474 20.9766 1.44223 20.9756 1.46981V6.50531C20.9766 6.53305 20.9718 6.56068 20.9616 6.58649C20.9514 6.6123 20.9361 6.63575 20.9164 6.65537C20.8968 6.67499 20.8734 6.69037 20.8476 6.70055C20.8217 6.71074 20.7941 6.7155 20.7664 6.71456H15.7309C15.7033 6.71527 15.6758 6.71033 15.6502 6.70004C15.6246 6.68975 15.6014 6.67433 15.5819 6.65474C15.5625 6.63514 15.5473 6.61178 15.5372 6.58608C15.5271 6.56039 15.5224 6.5329 15.5233 6.50531V1.46981Z" fill="#A0A0A0"/>
</svg>
