<svg width="29" height="20" viewBox="0 0 29 20" fill="none" xmlns="http://www.w3.org/2000/svg">
<g clip-path="url(#clip0_235_2)">
<path d="M12.0704 2.18338C13.0048 1.22849 14.3056 0.636271 15.7441 0.636271C17.6567 0.636271 19.3252 1.68227 20.2137 3.23505C21.0084 2.88678 21.8693 2.70729 22.7398 2.70838C26.1891 2.70838 28.9855 5.47505 28.9855 8.88783C28.9855 12.301 26.1891 15.0678 22.7398 15.0678C22.3267 15.068 21.9146 15.0277 21.5096 14.9475C20.727 16.3165 19.236 17.2414 17.5246 17.2414C16.8325 17.2423 16.1493 17.0881 15.5272 16.7905C14.734 18.6205 12.8859 19.9037 10.732 19.9037C8.48905 19.9037 6.57754 18.5116 5.8437 16.5593C5.52312 16.6262 5.19086 16.6609 4.85 16.6609C2.17951 16.6609 0.0144774 14.5156 0.0144774 11.8687C0.0125764 11.0299 0.234825 10.2052 0.659075 9.47688C1.08333 8.74854 1.69477 8.14197 2.43247 7.7176C2.12624 7.02593 1.96859 6.27979 1.96937 5.52572C1.96937 2.48172 4.48886 0.0141602 7.59662 0.0141602C9.42113 0.0141602 11.0425 0.865049 12.0704 2.18338Z" fill="#00A1E0"/>
<path d="M4.21064 10.3285C4.19251 10.375 4.21721 10.3847 4.2231 10.3929C4.27747 10.4317 4.33276 10.4596 4.38849 10.4907C4.68404 10.6446 4.96294 10.6896 5.25475 10.6896C5.84903 10.6896 6.21798 10.3796 6.21798 9.88037V9.8707C6.21798 9.40926 5.80156 9.24159 5.41074 9.1207L5.35999 9.10437C5.06535 9.01048 4.81114 8.92959 4.81114 8.73926V8.72926C4.81114 8.56648 4.95965 8.44659 5.18995 8.44659C5.44586 8.44659 5.74956 8.52992 5.9452 8.63603C5.9452 8.63603 6.00252 8.67248 6.02359 8.61781C6.03515 8.5887 6.13415 8.32726 6.14458 8.29892C6.15568 8.26814 6.13585 8.24548 6.11569 8.23337C5.89241 8.10003 5.58372 8.00903 5.26427 8.00903L5.20479 8.00948C4.66093 8.00948 4.28121 8.3317 4.28121 8.79359V8.80325C4.28121 9.29025 4.70013 9.44803 5.09253 9.55814L5.15574 9.57726C5.44167 9.66337 5.68817 9.73748 5.68817 9.93503V9.9447C5.68817 10.1253 5.52799 10.2597 5.26959 10.2597C5.16934 10.2597 4.84954 10.2577 4.50404 10.0435C4.46235 10.0196 4.43799 10.0023 4.40582 9.98326C4.38883 9.9727 4.34646 9.95437 4.32788 10.0095L4.21064 10.3285ZM12.9106 10.3285C12.8925 10.375 12.9172 10.3847 12.9231 10.3929C12.9775 10.4317 13.0328 10.4596 13.0885 10.4907C13.3839 10.6446 13.6629 10.6896 13.9548 10.6896C14.549 10.6896 14.918 10.3796 14.918 9.88037V9.8707C14.918 9.40926 14.5016 9.24159 14.1107 9.1207L14.06 9.10437C13.7653 9.01048 13.511 8.92959 13.511 8.73926V8.72926C13.511 8.56648 13.6597 8.44659 13.89 8.44659C14.1459 8.44659 14.4496 8.52992 14.6452 8.63603C14.6452 8.63603 14.7025 8.67248 14.7236 8.61781C14.7351 8.5887 14.8342 8.32726 14.8445 8.29892C14.8557 8.26814 14.8359 8.24548 14.8156 8.23337C14.5924 8.10003 14.2836 8.00903 13.9643 8.00903L13.9048 8.00948C13.3608 8.00948 12.9812 8.3317 12.9812 8.79359V8.80325C12.9812 9.29025 13.4 9.44803 13.7925 9.55814L13.8556 9.57726C14.1417 9.66337 14.3885 9.73748 14.3885 9.93503V9.9447C14.3885 10.1253 14.2279 10.2597 13.9696 10.2597C13.6985 10.2616 13.4326 10.1865 13.204 10.0435C13.1623 10.0196 13.1375 10.003 13.1063 9.98326C13.0955 9.97637 13.0451 9.95726 13.0278 10.0095L12.9106 10.3285ZM18.8499 9.35081C18.8499 9.63303 18.7962 9.85526 18.6906 10.0123C18.5861 10.1678 18.4281 10.2434 18.2077 10.2434C17.9869 10.2434 17.8296 10.1681 17.7269 10.0123C17.6229 9.85559 17.5701 9.63303 17.5701 9.35081C17.5701 9.06914 17.6229 8.84725 17.7269 8.69192C17.8296 8.53803 17.9869 8.46314 18.2077 8.46314C18.4281 8.46314 18.586 8.53803 18.6909 8.69181C18.7963 8.84737 18.8499 9.06914 18.8499 9.35081ZM19.3459 8.82781C19.2972 8.66637 19.2213 8.52392 19.1202 8.40526C19.019 8.28626 18.8911 8.19081 18.7392 8.12114C18.5877 8.05192 18.4086 8.0167 18.2077 8.0167C18.0063 8.0167 17.8272 8.05192 17.6757 8.12114C17.5239 8.1907 17.3959 8.28626 17.2944 8.40526C17.1937 8.52426 17.1177 8.66681 17.0686 8.82781C17.0204 8.98859 16.9961 9.16426 16.9961 9.35081C16.9961 9.53748 17.0204 9.71359 17.0686 9.87381C17.1178 10.0349 17.1932 10.1774 17.2948 10.2965C17.3985 10.4174 17.5287 10.5137 17.6757 10.5781C17.8275 10.6458 18.0063 10.6801 18.2077 10.6801C18.4086 10.6801 18.5874 10.6457 18.7392 10.5781C18.8863 10.5137 19.0165 10.4174 19.1202 10.2965C19.2213 10.1778 19.2972 10.0354 19.3459 9.87381C19.3946 9.71314 19.419 9.53714 19.419 9.35081C19.419 9.1647 19.3946 8.98859 19.3459 8.82781ZM23.4194 10.1681C23.403 10.1208 23.3563 10.1386 23.3563 10.1386C23.2841 10.1657 23.2073 10.1908 23.1257 10.2034C23.0356 10.2164 22.9447 10.2227 22.8537 10.2224C22.6135 10.2224 22.4228 10.1524 22.2861 10.0139C22.1492 9.87548 22.0724 9.6517 22.0732 9.34881C22.0741 9.07326 22.1418 8.86592 22.2635 8.70803C22.3845 8.55103 22.5684 8.47048 22.814 8.47048C23.0187 8.47048 23.1747 8.49348 23.3382 8.54414C23.3382 8.54414 23.3774 8.56081 23.396 8.51048C23.4392 8.39237 23.4715 8.3077 23.5177 8.17781C23.5309 8.14092 23.4987 8.12514 23.4871 8.1207C23.4228 8.09603 23.2709 8.05592 23.1561 8.03892C23.0489 8.02281 22.9235 8.01426 22.7839 8.01426C22.5755 8.01426 22.3898 8.04903 22.2309 8.1187C22.0724 8.18792 21.9379 8.28348 21.8314 8.40248C21.7249 8.52148 21.6441 8.66392 21.59 8.82503C21.5363 8.9857 21.5091 9.16226 21.5091 9.34881C21.5091 9.75237 21.6202 10.0787 21.8392 10.3175C22.0588 10.5571 22.3887 10.6789 22.8186 10.6789C23.0728 10.6789 23.3336 10.6284 23.5209 10.5559C23.5209 10.5559 23.5569 10.5389 23.5413 10.498L23.4194 10.1681ZM24.2875 9.08059C24.3109 8.92392 24.3551 8.79359 24.4232 8.69203C24.5259 8.53781 24.6827 8.45314 24.9032 8.45314C25.1235 8.45314 25.2692 8.53814 25.3736 8.69203C25.4429 8.79359 25.4731 8.92959 25.485 9.08059H24.2875ZM25.9576 8.73614C25.9154 8.58026 25.811 8.42281 25.7426 8.35081C25.6344 8.23659 25.5288 8.15681 25.4239 8.11237C25.2717 8.04895 25.108 8.01644 24.9427 8.01681C24.7331 8.01681 24.5428 8.05126 24.3885 8.12237C24.2338 8.1937 24.1037 8.29081 24.0018 8.41192C23.8998 8.53248 23.8231 8.67626 23.7744 8.83937C23.7253 9.00159 23.7006 9.17859 23.7006 9.36514C23.7006 9.55503 23.7262 9.73181 23.7769 9.89092C23.828 10.0513 23.9098 10.1926 24.0205 10.3095C24.1306 10.4273 24.2725 10.5196 24.4426 10.5839C24.6113 10.6479 24.8164 10.6811 25.052 10.6807C25.537 10.679 25.7925 10.573 25.8977 10.5159C25.9162 10.5059 25.934 10.488 25.9117 10.437L25.8019 10.1355C25.7855 10.0905 25.7388 10.1071 25.7388 10.1071C25.6188 10.1508 25.4479 10.2294 25.0496 10.2286C24.7892 10.2281 24.5961 10.1528 24.4752 10.035C24.3509 9.91448 24.2903 9.73726 24.2795 9.48703L25.9588 9.48859C25.9588 9.48859 26.003 9.48781 26.0075 9.4457C26.0091 9.42792 26.0653 9.10726 25.9576 8.73614ZM10.8391 9.08059C10.863 8.92392 10.9067 8.79359 10.9749 8.69203C11.0776 8.53781 11.2344 8.45314 11.4547 8.45314C11.6752 8.45314 11.8209 8.53814 11.9257 8.69203C11.9946 8.79359 12.0248 8.92959 12.0367 9.08059H10.8391ZM12.5088 8.73614C12.4667 8.58026 12.3627 8.42281 12.2942 8.35081C12.1861 8.23659 12.0804 8.15681 11.9756 8.11237C11.8234 8.04895 11.6597 8.01644 11.4944 8.01681C11.2852 8.01681 11.0945 8.05126 10.9402 8.12237C10.7854 8.1937 10.6554 8.29081 10.5535 8.41192C10.4515 8.53248 10.3748 8.67626 10.3261 8.83937C10.2774 9.00159 10.2523 9.17859 10.2523 9.36514C10.2523 9.55503 10.2778 9.73181 10.3286 9.89092C10.3797 10.0513 10.4615 10.1926 10.5721 10.3095C10.6823 10.4273 10.8242 10.5196 10.9943 10.5839C11.163 10.6479 11.3681 10.6811 11.6037 10.6807C12.0887 10.679 12.3441 10.573 12.4494 10.5159C12.4679 10.5059 12.4856 10.488 12.4634 10.437L12.3541 10.1355C12.3371 10.0905 12.2905 10.1071 12.2905 10.1071C12.1705 10.1508 12 10.2294 11.6009 10.2286C11.3409 10.2281 11.1478 10.1528 11.0269 10.035C10.9026 9.91448 10.8419 9.73726 10.8312 9.48703L12.5104 9.48859C12.5104 9.48859 12.5546 9.48781 12.5591 9.4457C12.5608 9.42792 12.6169 9.10726 12.5088 8.73614ZM7.20942 10.159C7.14372 10.1077 7.13465 10.0947 7.11245 10.0615C7.07937 10.0109 7.06249 9.93881 7.06249 9.84737C7.06249 9.70248 7.1112 9.59848 7.21225 9.52848C7.21112 9.52881 7.35669 9.40492 7.69936 9.40937C7.93986 9.4127 8.15486 9.44748 8.15486 9.44748V10.1964H8.15532C8.15532 10.1964 7.9419 10.2413 7.70174 10.2554C7.35997 10.2756 7.20817 10.1587 7.20942 10.159ZM7.87755 9.00181C7.80947 8.99692 7.72122 8.99403 7.61553 8.99403C7.47144 8.99403 7.33233 9.01181 7.20206 9.04626C7.07625 9.07823 6.95739 9.13228 6.85122 9.20581C6.74983 9.27676 6.66649 9.36968 6.60767 9.47737C6.54831 9.58592 6.51818 9.71381 6.51818 9.85703C6.51818 10.0028 6.54367 10.1295 6.59487 10.2331C6.64479 10.3356 6.72017 10.4241 6.81407 10.4906C6.9073 10.5574 7.02251 10.6064 7.15618 10.6359C7.28781 10.6655 7.43711 10.6804 7.60058 10.6804C7.77277 10.6804 7.94439 10.6667 8.11068 10.6387C8.25222 10.6148 8.39324 10.5881 8.53368 10.5586C8.58941 10.5456 8.65138 10.529 8.65138 10.529C8.69306 10.5189 8.68967 10.4751 8.68967 10.4751L8.68887 8.96903C8.68887 8.6387 8.59893 8.39381 8.42187 8.24203C8.24572 8.09059 7.98608 8.01414 7.65054 8.01414C7.52479 8.01414 7.32202 8.03114 7.20081 8.05503C7.20081 8.05503 6.83378 8.12459 6.68277 8.24037C6.68277 8.24037 6.64981 8.26059 6.66794 8.30592L6.78688 8.61926C6.80161 8.6597 6.84171 8.64592 6.84171 8.64592C6.84171 8.64592 6.85451 8.64114 6.86935 8.63259C7.19243 8.46014 7.60103 8.46548 7.60103 8.46548C7.78262 8.46548 7.92207 8.50103 8.01621 8.57192C8.10785 8.6407 8.15441 8.7447 8.15441 8.96414V9.0337C8.00998 9.01348 7.87755 9.00181 7.87755 9.00181ZM21.4215 8.15303C21.4239 8.14754 21.4251 8.14162 21.4252 8.13564C21.4252 8.12965 21.424 8.12372 21.4217 8.1182C21.4193 8.11268 21.4158 8.10768 21.4115 8.10351C21.4071 8.09934 21.4019 8.09608 21.3962 8.09392C21.3678 8.08303 21.2249 8.05348 21.1147 8.04659C20.9039 8.03403 20.7866 8.06881 20.6818 8.11503C20.5779 8.16114 20.4623 8.23559 20.3978 8.32026V8.11981C20.3978 8.09192 20.3777 8.0697 20.3496 8.0697H19.9191C19.8911 8.0697 19.8709 8.09192 19.8709 8.11981V10.5765C19.8709 10.604 19.894 10.6267 19.9221 10.6267H20.3632C20.3699 10.6267 20.3765 10.6253 20.3827 10.6228C20.3888 10.6203 20.3945 10.6166 20.3992 10.6119C20.4039 10.6072 20.4076 10.6017 20.4101 10.5956C20.4127 10.5896 20.414 10.583 20.4139 10.5765V9.34914C20.4139 9.18448 20.4325 9.02003 20.4697 8.91692C20.5059 8.81481 20.5555 8.73314 20.6166 8.67437C20.6749 8.61803 20.7461 8.57613 20.8242 8.55214C20.9022 8.5287 20.9885 8.52103 21.0496 8.52103C21.1375 8.52103 21.234 8.54326 21.234 8.54326C21.2662 8.54692 21.2844 8.52748 21.2951 8.49881C21.3239 8.42348 21.4057 8.19792 21.4213 8.15303" fill="white"/>
<path d="M17.2804 7.01436C17.2259 6.99827 17.1705 6.98528 17.1144 6.97548C17.039 6.96335 16.9627 6.9577 16.8863 6.95859C16.5825 6.95859 16.3431 7.0427 16.1752 7.2087C16.008 7.37381 15.8945 7.62525 15.8376 7.95592L15.8169 8.06725H15.4356C15.4356 8.06725 15.3894 8.06559 15.3795 8.11503L15.3172 8.45792C15.3127 8.49025 15.3271 8.51092 15.3716 8.51092H15.7427L15.3663 10.572C15.337 10.738 15.3032 10.8745 15.2656 10.978C15.2289 11.08 15.1931 11.1566 15.1484 11.2125C15.1054 11.2658 15.065 11.3056 14.9948 11.3286C14.937 11.3477 14.8702 11.3566 14.7971 11.3566C14.7567 11.3566 14.7027 11.35 14.6627 11.342C14.6313 11.336 14.6008 11.3263 14.5718 11.3131C14.5718 11.3131 14.5285 11.297 14.5112 11.3396C14.4976 11.3748 14.3985 11.6415 14.3866 11.6744C14.3751 11.7071 14.3915 11.7326 14.4125 11.7403C14.4621 11.7573 14.4988 11.7686 14.566 11.7844C14.6594 11.8059 14.7382 11.807 14.8121 11.807C14.9664 11.807 15.1075 11.7856 15.2243 11.7444C15.3416 11.7027 15.4439 11.6301 15.5347 11.5321C15.6325 11.4261 15.694 11.3153 15.7526 11.1635C15.8108 11.0137 15.8607 10.8275 15.9003 10.6106L16.2787 8.51092H16.8318C16.8318 8.51092 16.8783 8.51248 16.8879 8.4627L16.9506 8.12025C16.9547 8.08748 16.9408 8.06725 16.8957 8.06725H16.3587C16.3617 8.05548 16.386 7.87014 16.4475 7.6957C16.4739 7.62159 16.5234 7.56125 16.5651 7.52003C16.6044 7.48079 16.6527 7.45134 16.7059 7.43414C16.7592 7.41714 16.8198 7.40903 16.8863 7.40903C16.9366 7.40903 16.9865 7.4147 17.024 7.42236C17.0761 7.43336 17.0963 7.43903 17.1099 7.44303C17.1648 7.45925 17.1722 7.44348 17.183 7.41748L17.3113 7.07192C17.3246 7.0347 17.2919 7.01881 17.2804 7.01436ZM9.77867 10.5766C9.77867 10.604 9.75839 10.6264 9.73041 10.6264H9.2851C9.25701 10.6264 9.23718 10.6041 9.23718 10.5766V7.06136C9.23718 7.03392 9.25701 7.01159 9.2851 7.01159H9.7303C9.75839 7.01159 9.77867 7.03381 9.77867 7.06136V10.5766Z" fill="white"/>
</g>
<defs>
<clipPath id="clip0_235_2">
<rect width="29" height="20" fill="white"/>
</clipPath>
</defs>
</svg>
