<svg width="49" height="49" viewBox="0 0 49 49" fill="none" xmlns="http://www.w3.org/2000/svg">
<path d="M1.51953 24.315C1.51953 34.2689 7.90222 42.7032 16.7164 45.8186V2.8114C7.90222 5.92676 1.51953 14.361 1.51953 24.315Z" fill="#ED4C5C"/>
<path d="M24.3152 1.51965C21.6558 1.51965 19.0723 1.97556 16.7168 2.81139V16.7165H45.8188C42.7035 7.90234 34.2692 1.51965 24.3152 1.51965Z" fill="#699635"/>
<path d="M45.8188 16.7166H16.7168V31.9134H45.8188C46.6546 29.5579 47.1105 26.9744 47.1105 24.315C47.1105 21.6555 46.6546 19.0721 45.8188 16.7166Z" fill="#F9F9F9"/>
<path d="M16.7168 31.9135V45.8186C19.0723 46.6544 21.6558 47.1103 24.3152 47.1103C34.2692 47.1103 42.7035 40.8036 45.8188 31.9135H16.7168Z" fill="#3E4347"/>
</svg>
